<?xml version="1.0" encoding="UTF-8"?>
<svg xmlns="http://www.w3.org/2000/svg" width="720" height="781" viewBox="0 0 720 781" fill="none">
  <path d="M21.8 0H698.2C710.2 0 720 9.79999 720 21.8V759C720 771 710.2 780.8 698.2 780.8H21.8C9.79999 780.8 0 771 0 759V21.8C0 9.69999 9.79999 0 21.8 0Z" fill="#4C63B8"></path>
  <path d="M627.477 207.491C659.226 175.741 659.226 124.266 627.477 92.5163C595.727 60.767 544.251 60.767 512.502 92.5163C480.753 124.266 480.753 175.741 512.502 207.491C544.251 239.24 595.727 239.24 627.477 207.491Z" stroke="white" stroke-width="6.5455" stroke-miterlimit="8.7273"></path>
  <path d="M114.6 622.7H106.3L83.9999 593.2V622.6H75.2V578.5H83.4L105.8 607.9V578.5H114.6V622.7Z" fill="white"></path>
  <path d="M155.1 607.4C155.1 616.6 148.1 623.5 138.6 623.5C129.1 623.5 122.1 616.6 122.1 607.4C122.1 598.2 129.1 591.3 138.6 591.3C148 591.3 155.1 598.2 155.1 607.4ZM130.4 607.4C130.4 612.3 133.9 615.8 138.5 615.8C143.1 615.8 146.6 612.3 146.6 607.4C146.6 602.5 143.1 599 138.5 599C133.9 599 130.4 602.5 130.4 607.4Z" fill="white"></path>
  <path d="M218 587.6L210.4 592.2C207.9 588.4 203.9 586.1 199 586.1C191 586.1 185.1 592 185.1 600.5C185.1 609.3 191.2 614.9 199 614.9C203.9 614.9 207.8 612.7 210.5 608.9L217.7 614.1C213.8 619.8 207.1 623.4 199.1 623.4C185.5 623.4 176 613.8 176 600.5C176 587.2 185.6 577.6 199.1 577.6C207.2 577.8 214.4 581.5 218 587.6Z" fill="white"></path>
  <path d="M254.2 622.7H246.2V619.3C244.2 621.8 241.3 623.5 237.1 623.5C228.7 623.5 222.3 616.6 222.3 607.4C222.3 598.2 228.7 591.3 237.1 591.3C241.3 591.3 244.2 593 246.2 595.5V592.1H254.2V622.7ZM230.7 607.4C230.7 612.1 233.8 615.8 238.6 615.8C243.3 615.8 246.5 612.2 246.5 607.4C246.5 602.6 243.3 599 238.6 599C233.7 599 230.7 602.7 230.7 607.4Z" fill="white"></path>
  <path d="M291.7 603.2V622.6H283.5V605.8C283.5 601.4 281.3 599 277.5 599C274 599 271 601.3 271 605.9V622.6H262.8V592.1H270.8V595.7C273 592.5 276.3 591.3 279.8 591.3C286.7 591.3 291.7 596.2 291.7 603.2Z" fill="white"></path>
  <path d="M326.6 597.1L320.7 602C318.8 600 316.9 598.9 314.2 598.9C309.9 598.9 306.5 602.2 306.5 607.3C306.5 612.4 309.9 615.7 314.1 615.7C316.7 615.7 319 614.5 320.7 612.6L326.6 617.6C323.7 621.3 319.5 623.3 314.3 623.3C304.6 623.3 298 616.5 298 607.2C298 598 304.5 591.1 314.3 591.1C319.5 591.3 323.8 593.4 326.6 597.1Z" fill="white"></path>
  <path d="M360.4 607.4C360.4 608.3 360.3 609.5 360.2 610.2H338.6C339.5 614.6 342.6 616.5 346.4 616.5C349 616.5 351.9 615.4 354.1 613.6L358.9 618.9C355.4 622.1 351 623.5 345.9 623.5C336.5 623.5 330.1 617.1 330.1 607.5C330.1 597.9 336.4 591.3 345.5 591.3C354.3 591.3 360.3 597.9 360.4 607.4ZM338.6 604.5H352.1C351.3 600.6 349 598.4 345.5 598.4C341.6 598.4 339.3 600.8 338.6 604.5Z" fill="white"></path>
  <path d="M387.9 592L386.7 600.2C385.3 599.6 383.4 599.2 381.7 599.2C377.9 599.2 375.3 601.5 375.3 606.1V622.7H367.1V592.2H375.1V595.5C377 592.6 379.9 591.3 383.7 591.3C385.4 591.3 386.8 591.6 387.9 592Z" fill="white"></path>
  <path d="M439.3 589.7C435.8 587.6 431.6 586 426.8 586C421.9 586 418.4 588 418.4 591.3C418.4 594.5 422.2 595.5 427.5 596.4L430 596.8C437.9 598.1 444 601.5 444 609.1C444 618.8 435.4 623.5 426 623.5C419.3 623.5 412.1 621.5 407.4 617.7L412 610.6C415.2 613.2 420.4 615.4 426 615.4C430.9 615.4 434.7 613.5 434.7 610.1C434.7 607 431.5 605.9 425.3 604.9L422.5 604.5C414.7 603.3 409.1 599.8 409.1 591.9C409.1 582.7 417.3 577.9 426.7 577.9C432.9 577.9 438 579.3 443.5 582.6L439.3 589.7Z" fill="white"></path>
  <path d="M460.7 582.2C460.7 585.2 458.4 587.4 455.4 587.4C452.4 587.4 450.2 585.1 450.2 582.2C450.2 579.2 452.5 576.9 455.4 576.9C458.4 576.9 460.7 579.2 460.7 582.2ZM459.5 622.7H451.3V592.2H459.5V622.7Z" fill="white"></path>
  <path d="M489.8 595.6V592.2H497.9V620.2C497.9 630 491.5 635.9 481.4 635.9C476.6 635.9 471.5 634.6 468 632.2L470.9 625.5C474 627.5 477.3 628.6 481 628.6C486.1 628.6 489.7 625.8 489.7 620.5V618.4C487.6 621 484.5 622.5 480.3 622.5C472.9 622.5 466.3 616.3 466.3 606.9C466.3 597.5 472.9 591.3 480.3 591.3C484.6 591.3 487.7 593 489.8 595.6ZM474.7 606.9C474.7 611.3 477.7 614.9 482.4 614.9C487 614.9 490.1 611.4 490.1 606.9C490.1 602.3 487 598.9 482.4 598.9C477.7 598.9 474.7 602.5 474.7 606.9Z" fill="white"></path>
  <path d="M535.3 603.2V622.6H527.1V605.8C527.1 601.4 524.9 599 521.1 599C517.6 599 514.6 601.3 514.6 605.9V622.6H506.4V592.1H514.4V595.7C516.6 592.5 519.9 591.3 523.4 591.3C530.4 591.3 535.3 596.2 535.3 603.2Z" fill="white"></path>
  <path d="M573.8 622.7H565.8V619.3C563.8 621.8 560.9 623.5 556.7 623.5C548.3 623.5 541.9 616.6 541.9 607.4C541.9 598.2 548.3 591.3 556.7 591.3C560.9 591.3 563.8 593 565.8 595.5V592.1H573.8V622.7ZM550.2 607.4C550.2 612.1 553.3 615.8 558.1 615.8C562.8 615.8 566 612.2 566 607.4C566 602.6 562.8 599 558.1 599C553.3 599 550.2 602.7 550.2 607.4Z" fill="white"></path>
  <path d="M590.6 622.7H582.4V577.3H590.6V622.7Z" fill="white"></path>
  <path d="M93.4 656.6C107.2 656.6 116.3 665.4 116.3 678.6C116.3 691.8 107.2 700.6 93.4 700.6H75.2V656.5H93.4V656.6ZM83.9999 664.8V692.5H93.2999C102.6 692.5 107.1 686.7 107.1 678.7C107.1 670.6 102.6 664.9 93.2999 664.9H83.9999V664.8Z" fill="white"></path>
  <path d="M151.9 685.4C151.9 686.3 151.8 687.5 151.7 688.2H130.1C131 692.6 134.1 694.5 137.9 694.5C140.5 694.5 143.4 693.4 145.6 691.6L150.4 696.9C146.9 700.1 142.5 701.5 137.4 701.5C128 701.5 121.6 695.1 121.6 685.5C121.6 675.9 127.9 669.3 137 669.3C145.9 669.3 151.9 675.9 151.9 685.4ZM130.2 682.5H143.7C142.9 678.6 140.6 676.4 137.1 676.4C133.2 676.4 130.9 678.8 130.2 682.5Z" fill="white"></path>
  <path d="M180.5 677.5H169.4V688.6C169.4 692.4 171.4 693.8 174 693.8C176 693.8 178.1 692.8 179.7 691.8L182.7 698.2C180 700 176.9 701.4 172.6 701.4C165 701.4 161.2 697.1 161.2 689.2V677.5H155.3V670.2H161.2V661.1H169.4V670.2H180.5V677.5Z" fill="white"></path>
  <path d="M215.7 685.4C215.7 686.3 215.6 687.5 215.5 688.2H193.9C194.8 692.6 197.9 694.5 201.7 694.5C204.3 694.5 207.2 693.4 209.4 691.6L214.2 696.9C210.7 700.1 206.3 701.5 201.2 701.5C191.8 701.5 185.4 695.1 185.4 685.5C185.4 675.9 191.7 669.3 200.8 669.3C209.7 669.3 215.7 675.9 215.7 685.4ZM194 682.5H207.5C206.7 678.6 204.4 676.4 200.9 676.4C197 676.4 194.7 678.8 194 682.5Z" fill="white"></path>
  <path d="M249 675.1L243.1 680C241.2 678 239.3 676.9 236.6 676.9C232.3 676.9 228.9 680.2 228.9 685.3C228.9 690.4 232.3 693.7 236.5 693.7C239.1 693.7 241.4 692.5 243.1 690.6L249 695.6C246.1 699.3 241.9 701.3 236.7 701.3C227 701.3 220.4 694.5 220.4 685.2C220.4 676 226.9 669.1 236.7 669.1C241.9 669.3 246.2 671.4 249 675.1Z" fill="white"></path>
  <path d="M277.4 677.5H266.3V688.6C266.3 692.4 268.3 693.8 270.9 693.8C272.9 693.8 275 692.8 276.6 691.8L279.6 698.2C276.9 700 273.8 701.4 269.5 701.4C261.9 701.4 258.1 697.1 258.1 689.2V677.5H252.2V670.2H258.1V661.1H266.3V670.2H277.4V677.5Z" fill="white"></path>
  <path d="M312.7 685.4C312.7 686.3 312.6 687.5 312.5 688.2H290.9C291.8 692.6 294.9 694.5 298.7 694.5C301.3 694.5 304.2 693.4 306.4 691.6L311.2 696.9C307.7 700.1 303.3 701.5 298.2 701.5C288.8 701.5 282.4 695.1 282.4 685.5C282.4 675.9 288.7 669.3 297.8 669.3C306.6 669.3 312.7 675.9 312.7 685.4ZM290.9 682.5H304.4C303.6 678.6 301.3 676.4 297.8 676.4C293.9 676.4 291.7 678.8 290.9 682.5Z" fill="white"></path>
  <path d="M341.3 673.3V655.3H349.5V700.7H341.5V697.3C339.5 699.8 336.6 701.5 332.4 701.5C324 701.5 317.6 694.6 317.6 685.4C317.6 676.2 324 669.3 332.4 669.3C336.4 669.3 339.3 670.9 341.3 673.3ZM325.9 685.4C325.9 690.1 329 693.8 333.8 693.8C338.5 693.8 341.7 690.2 341.7 685.4C341.7 680.6 338.5 677 333.8 677C329 677 325.9 680.7 325.9 685.4Z" fill="white"></path>
  <rect x="606.004" y="108.5" width="29" height="99" rx="14.5" transform="rotate(45 606.004 108.5)" fill="white"></rect>
  <rect x="510.929" y="154.935" width="29" height="63.0984" rx="14.5" transform="rotate(-45 510.929 154.935)" fill="white"></rect>
</svg>
